<svg width="1440" height="1272" viewBox="0 0 1440 1272" fill="none" xmlns="http://www.w3.org/2000/svg">
<g clip-path="url(#clip0_183_281)" filter="url(#filter0_n_183_281)">
<rect width="1440" height="1272" fill="#F7F4F2"/>
<g opacity="0.45">
<g opacity="0.1" clip-path="url(#clip1_183_281)">
<path d="M1059 507.773H-0.0117188V508.87H1059V507.773Z" fill="black" fill-opacity="0.5"/>
<path d="M1059 486.59H-0.0117188V487.687H1059V486.59Z" fill="black" fill-opacity="0.5"/>
<path d="M1059 465.411H-0.0117188V466.508H1059V465.411Z" fill="black" fill-opacity="0.5"/>
<path d="M1059 444.229H-0.0117188V445.326H1059V444.229Z" fill="black" fill-opacity="0.5"/>
<path d="M1059 401.868H-0.0117188V402.965H1059V401.868Z" fill="black" fill-opacity="0.5"/>
<path d="M1059 380.688H-0.0117188V381.785H1059V380.688Z" fill="black" fill-opacity="0.5"/>
<path d="M1059 359.51H-0.0117188V360.607H1059V359.51Z" fill="black" fill-opacity="0.5"/>
<path d="M1059 338.327H-0.0117188V339.424H1059V338.327Z" fill="black" fill-opacity="0.5"/>
<path d="M1059 295.966H-0.0117188V297.063H1059V295.966Z" fill="black" fill-opacity="0.5"/>
<path d="M1059 274.787H-0.0117188V275.884H1059V274.787Z" fill="black" fill-opacity="0.5"/>
<path d="M1059 253.605H-0.0117188V254.702H1059V253.605Z" fill="black" fill-opacity="0.5"/>
<path d="M1059 232.426H-0.0117188V233.523H1059V232.426Z" fill="black" fill-opacity="0.5"/>
<path d="M1059 190.064H-0.0117188V191.161H1059V190.064Z" fill="black" fill-opacity="0.5"/>
<path d="M1059 168.882H-0.0117188V169.979H1059V168.882Z" fill="black" fill-opacity="0.5"/>
<path d="M1059 147.703H-0.0117188V148.8H1059V147.703Z" fill="black" fill-opacity="0.5"/>
<path d="M1059 126.521H-0.0117188V127.618H1059V126.521Z" fill="black" fill-opacity="0.5"/>
<path d="M1059 84.1628H-0.0117188V85.2597H1059V84.1628Z" fill="black" fill-opacity="0.5"/>
<path d="M1059 62.9805H-0.0117188V64.0773H1059V62.9805Z" fill="black" fill-opacity="0.5"/>
<path d="M1059 41.8015H-0.0117188V42.8983H1059V41.8015Z" fill="black" fill-opacity="0.5"/>
<path d="M1059 20.6191H-0.0117188V21.716H1059V20.6191Z" fill="black" fill-opacity="0.5"/>
<path d="M508.868 -0.0112305H507.771V635.405H508.868V-0.0112305Z" fill="black" fill-opacity="0.5"/>
<path d="M487.687 -0.0112305H486.59V635.405H487.687V-0.0112305Z" fill="black" fill-opacity="0.5"/>
<path d="M466.507 -0.0112305H465.41V635.405H466.507V-0.0112305Z" fill="black" fill-opacity="0.5"/>
<path d="M445.325 -0.0112305H444.229V635.405H445.325V-0.0112305Z" fill="black" fill-opacity="0.5"/>
<path d="M402.964 -0.0112305H401.867V635.405H402.964V-0.0112305Z" fill="black" fill-opacity="0.5"/>
<path d="M381.784 -0.0112305H380.688V635.405H381.784V-0.0112305Z" fill="black" fill-opacity="0.5"/>
<path d="M360.603 -0.0112305H359.506V635.405H360.603V-0.0112305Z" fill="black" fill-opacity="0.5"/>
<path d="M339.425 -0.0112305H338.328V635.405H339.425V-0.0112305Z" fill="black" fill-opacity="0.5"/>
<path d="M297.064 -0.0112305H295.967V635.405H297.064V-0.0112305Z" fill="black" fill-opacity="0.5"/>
<path d="M275.884 -0.0112305H274.787V635.405H275.884V-0.0112305Z" fill="black" fill-opacity="0.5"/>
<path d="M254.7 -0.0112305H253.604V635.405H254.7V-0.0112305Z" fill="black" fill-opacity="0.5"/>
<path d="M233.523 -0.0112305H232.426V635.405H233.523V-0.0112305Z" fill="black" fill-opacity="0.5"/>
<path d="M191.161 -0.0112305H190.064V635.405H191.161V-0.0112305Z" fill="black" fill-opacity="0.5"/>
<path d="M169.98 -0.0112305H168.883V635.405H169.98V-0.0112305Z" fill="black" fill-opacity="0.5"/>
<path d="M148.8 -0.0112305H147.703V635.405H148.8V-0.0112305Z" fill="black" fill-opacity="0.5"/>
<path d="M127.616 -0.0112305H126.52V635.405H127.616V-0.0112305Z" fill="black" fill-opacity="0.5"/>
<path d="M85.257 -0.0112305H84.1602V635.405H85.257V-0.0112305Z" fill="black" fill-opacity="0.5"/>
<path d="M64.0773 -0.0112305H62.9805V635.405H64.0773V-0.0112305Z" fill="black" fill-opacity="0.5"/>
<path d="M42.8976 -0.0112305H41.8008V635.405H42.8976V-0.0112305Z" fill="black" fill-opacity="0.5"/>
<path d="M21.716 -0.0112305H20.6191V635.405H21.716V-0.0112305Z" fill="black" fill-opacity="0.5"/>
<path d="M1059 613.674H-0.0117188V614.771H1059V613.674Z" fill="black" fill-opacity="0.5"/>
<path d="M1059 592.492H-0.0117188V593.589H1059V592.492Z" fill="black" fill-opacity="0.5"/>
<path d="M1059 571.313H-0.0117188V572.41H1059V571.313Z" fill="black" fill-opacity="0.5"/>
<path d="M1059 550.134H-0.0117188V551.231H1059V550.134Z" fill="black" fill-opacity="0.5"/>
<path d="M1059 507.773H-0.0117188V508.87H1059V507.773Z" fill="black" fill-opacity="0.5"/>
<path d="M1059 486.59H-0.0117188V487.687H1059V486.59Z" fill="black" fill-opacity="0.5"/>
<path d="M1059 465.411H-0.0117188V466.508H1059V465.411Z" fill="black" fill-opacity="0.5"/>
<path d="M1059 444.229H-0.0117188V445.326H1059V444.229Z" fill="black" fill-opacity="0.5"/>
<path d="M1059 401.868H-0.0117188V402.965H1059V401.868Z" fill="black" fill-opacity="0.5"/>
<path d="M1059 380.689H-0.0117188V381.786H1059V380.689Z" fill="black" fill-opacity="0.5"/>
<path d="M1059 359.506H-0.0117188V360.603H1059V359.506Z" fill="black" fill-opacity="0.5"/>
<path d="M1059 338.327H-0.0117188V339.424H1059V338.327Z" fill="black" fill-opacity="0.5"/>
<path d="M1059 295.966H-0.0117188V297.063H1059V295.966Z" fill="black" fill-opacity="0.5"/>
<path d="M1059 274.787H-0.0117188V275.884H1059V274.787Z" fill="black" fill-opacity="0.5"/>
<path d="M1059 253.605H-0.0117188V254.702H1059V253.605Z" fill="black" fill-opacity="0.5"/>
<path d="M1059 232.426H-0.0117188V233.523H1059V232.426Z" fill="black" fill-opacity="0.5"/>
<path d="M1059 190.064H-0.0117188V191.161H1059V190.064Z" fill="black" fill-opacity="0.5"/>
<path d="M1059 168.882H-0.0117188V169.979H1059V168.882Z" fill="black" fill-opacity="0.5"/>
<path d="M1059 147.703H-0.0117188V148.8H1059V147.703Z" fill="black" fill-opacity="0.5"/>
<path d="M1059 126.521H-0.0117188V127.618H1059V126.521Z" fill="black" fill-opacity="0.5"/>
<path d="M1038.38 -0.0112305H1037.28V635.405H1038.38V-0.0112305Z" fill="black" fill-opacity="0.5"/>
<path d="M1017.2 -0.0112305H1016.11V635.405H1017.2V-0.0112305Z" fill="black" fill-opacity="0.5"/>
<path d="M996.019 -0.0112305H994.922V635.405H996.019V-0.0112305Z" fill="black" fill-opacity="0.5"/>
<path d="M974.841 -0.0112305H973.744V635.405H974.841V-0.0112305Z" fill="black" fill-opacity="0.5"/>
<path d="M932.48 -0.0112305H931.383V635.405H932.48V-0.0112305Z" fill="black" fill-opacity="0.5"/>
<path d="M911.296 -0.0112305H910.199V635.405H911.296V-0.0112305Z" fill="black" fill-opacity="0.5"/>
<path d="M890.118 -0.0112305H889.021V635.405H890.118V-0.0112305Z" fill="black" fill-opacity="0.5"/>
<path d="M868.939 -0.0112305H867.842V635.405H868.939V-0.0112305Z" fill="black" fill-opacity="0.5"/>
<path d="M826.577 -0.0112305H825.48V635.405H826.577V-0.0112305Z" fill="black" fill-opacity="0.5"/>
<path d="M805.396 -0.0112305H804.299V635.405H805.396V-0.0112305Z" fill="black" fill-opacity="0.5"/>
<path d="M784.216 -0.0112305H783.119V635.405H784.216V-0.0112305Z" fill="black" fill-opacity="0.5"/>
<path d="M763.034 -0.0112305H761.938V635.405H763.034V-0.0112305Z" fill="black" fill-opacity="0.5"/>
<path d="M720.673 -0.0112305H719.576V635.405H720.673V-0.0112305Z" fill="black" fill-opacity="0.5"/>
<path d="M699.493 -0.0112305H698.396V635.405H699.493V-0.0112305Z" fill="black" fill-opacity="0.5"/>
<path d="M678.312 -0.0112305H677.215V635.405H678.312V-0.0112305Z" fill="black" fill-opacity="0.5"/>
<path d="M657.132 -0.0112305H656.035V635.405H657.132V-0.0112305Z" fill="black" fill-opacity="0.5"/>
<path d="M614.771 -0.0112305H613.674V635.405H614.771V-0.0112305Z" fill="black" fill-opacity="0.5"/>
<path d="M593.591 -0.0112305H592.494V635.405H593.591V-0.0112305Z" fill="black" fill-opacity="0.5"/>
<path d="M572.409 -0.0112305H571.312V635.405H572.409V-0.0112305Z" fill="black" fill-opacity="0.5"/>
<path d="M551.232 -0.0112305H550.135V635.405H551.232V-0.0112305Z" fill="black" fill-opacity="0.5"/>
<path d="M1060 636.39H-1V-1H1060V636.39ZM0.973567 634.416H1058.03V0.977175H0.973567V634.416Z" fill="black"/>
<path d="M1059.01 422.61H-0.0117188V424.587H1059.01V422.61Z" fill="black"/>
<path d="M1059.01 528.511H-0.0117188V530.489H1059.01V528.511Z" fill="black"/>
<path d="M1059.01 316.708H-0.0117188V318.686H1059.01V316.708Z" fill="black"/>
<path d="M1059.01 210.807H-0.0117188V212.78H1059.01V210.807Z" fill="black"/>
<path d="M1059.01 104.902H-0.0117188V106.879H1059.01V104.902Z" fill="black"/>
<path d="M424.585 -0.0112305H422.607V635.405H424.585V-0.0112305Z" fill="black"/>
<path d="M318.681 -0.0112305H316.707V635.405H318.681V-0.0112305Z" fill="black"/>
<path d="M212.778 -0.0112305H210.805V635.405H212.778V-0.0112305Z" fill="black"/>
<path d="M106.874 -0.0112305H104.9V635.405H106.874V-0.0112305Z" fill="black"/>
<path d="M954.102 -0.0112305H952.125V635.405H954.102V-0.0112305Z" fill="black"/>
<path d="M848.192 -0.0112305H846.219V635.405H848.192V-0.0112305Z" fill="black"/>
<path d="M742.29 -0.0112305H740.316V635.405H742.29V-0.0112305Z" fill="black"/>
<path d="M636.388 -0.0112305H634.414V635.405H636.388V-0.0112305Z" fill="black"/>
<path d="M530.487 -0.0112305H528.514V635.405H530.487V-0.0112305Z" fill="black"/>
</g>
<g opacity="0.1" clip-path="url(#clip2_183_281)">
<path d="M2119 507.773H1059.99V508.87H2119V507.773Z" fill="black" fill-opacity="0.5"/>
<path d="M2119 486.59H1059.99V487.687H2119V486.59Z" fill="black" fill-opacity="0.5"/>
<path d="M2119 465.411H1059.99V466.508H2119V465.411Z" fill="black" fill-opacity="0.5"/>
<path d="M2119 444.229H1059.99V445.326H2119V444.229Z" fill="black" fill-opacity="0.5"/>
<path d="M2119 401.868H1059.99V402.965H2119V401.868Z" fill="black" fill-opacity="0.5"/>
<path d="M2119 380.688H1059.99V381.785H2119V380.688Z" fill="black" fill-opacity="0.5"/>
<path d="M2119 359.51H1059.99V360.607H2119V359.51Z" fill="black" fill-opacity="0.5"/>
<path d="M2119 338.327H1059.99V339.424H2119V338.327Z" fill="black" fill-opacity="0.5"/>
<path d="M2119 295.966H1059.99V297.063H2119V295.966Z" fill="black" fill-opacity="0.5"/>
<path d="M2119 274.787H1059.99V275.884H2119V274.787Z" fill="black" fill-opacity="0.5"/>
<path d="M2119 253.605H1059.99V254.702H2119V253.605Z" fill="black" fill-opacity="0.5"/>
<path d="M2119 232.426H1059.99V233.523H2119V232.426Z" fill="black" fill-opacity="0.5"/>
<path d="M2119 190.064H1059.99V191.161H2119V190.064Z" fill="black" fill-opacity="0.5"/>
<path d="M2119 168.882H1059.99V169.979H2119V168.882Z" fill="black" fill-opacity="0.5"/>
<path d="M2119 147.703H1059.99V148.8H2119V147.703Z" fill="black" fill-opacity="0.5"/>
<path d="M2119 126.521H1059.99V127.618H2119V126.521Z" fill="black" fill-opacity="0.5"/>
<path d="M2119 84.1628H1059.99V85.2597H2119V84.1628Z" fill="black" fill-opacity="0.5"/>
<path d="M2119 62.9805H1059.99V64.0773H2119V62.9805Z" fill="black" fill-opacity="0.5"/>
<path d="M2119 41.8015H1059.99V42.8983H2119V41.8015Z" fill="black" fill-opacity="0.5"/>
<path d="M2119 20.6191H1059.99V21.716H2119V20.6191Z" fill="black" fill-opacity="0.5"/>
<path d="M1420.6 -0.0112305H1419.51V635.405H1420.6V-0.0112305Z" fill="black" fill-opacity="0.5"/>
<path d="M1399.42 -0.0112305H1398.33V635.405H1399.42V-0.0112305Z" fill="black" fill-opacity="0.5"/>
<path d="M1357.06 -0.0112305H1355.97V635.405H1357.06V-0.0112305Z" fill="black" fill-opacity="0.5"/>
<path d="M1335.88 -0.0112305H1334.79V635.405H1335.88V-0.0112305Z" fill="black" fill-opacity="0.5"/>
<path d="M1314.7 -0.0112305H1313.6V635.405H1314.7V-0.0112305Z" fill="black" fill-opacity="0.5"/>
<path d="M1293.52 -0.0112305H1292.43V635.405H1293.52V-0.0112305Z" fill="black" fill-opacity="0.5"/>
<path d="M1251.16 -0.0112305H1250.06V635.405H1251.16V-0.0112305Z" fill="black" fill-opacity="0.5"/>
<path d="M1229.98 -0.0112305H1228.88V635.405H1229.98V-0.0112305Z" fill="black" fill-opacity="0.5"/>
<path d="M1208.8 -0.0112305H1207.7V635.405H1208.8V-0.0112305Z" fill="black" fill-opacity="0.5"/>
<path d="M1187.62 -0.0112305H1186.52V635.405H1187.62V-0.0112305Z" fill="black" fill-opacity="0.5"/>
<path d="M1145.26 -0.0112305H1144.16V635.405H1145.26V-0.0112305Z" fill="black" fill-opacity="0.5"/>
<path d="M1124.08 -0.0112305H1122.98V635.405H1124.08V-0.0112305Z" fill="black" fill-opacity="0.5"/>
<path d="M1102.9 -0.0112305H1101.8V635.405H1102.9V-0.0112305Z" fill="black" fill-opacity="0.5"/>
<path d="M1081.72 -0.0112305H1080.62V635.405H1081.72V-0.0112305Z" fill="black" fill-opacity="0.5"/>
<path d="M2119 613.674H1059.99V614.771H2119V613.674Z" fill="black" fill-opacity="0.5"/>
<path d="M2119 592.492H1059.99V593.589H2119V592.492Z" fill="black" fill-opacity="0.5"/>
<path d="M2119 571.313H1059.99V572.41H2119V571.313Z" fill="black" fill-opacity="0.5"/>
<path d="M2119 550.134H1059.99V551.231H2119V550.134Z" fill="black" fill-opacity="0.5"/>
<path d="M2119 507.773H1059.99V508.87H2119V507.773Z" fill="black" fill-opacity="0.5"/>
<path d="M2119 486.59H1059.99V487.687H2119V486.59Z" fill="black" fill-opacity="0.5"/>
<path d="M2119 465.411H1059.99V466.508H2119V465.411Z" fill="black" fill-opacity="0.5"/>
<path d="M2119 444.229H1059.99V445.326H2119V444.229Z" fill="black" fill-opacity="0.5"/>
<path d="M2119 401.868H1059.99V402.965H2119V401.868Z" fill="black" fill-opacity="0.5"/>
<path d="M2119 380.689H1059.99V381.786H2119V380.689Z" fill="black" fill-opacity="0.5"/>
<path d="M2119 359.506H1059.99V360.603H2119V359.506Z" fill="black" fill-opacity="0.5"/>
<path d="M2119 338.327H1059.99V339.424H2119V338.327Z" fill="black" fill-opacity="0.5"/>
<path d="M2119 295.966H1059.99V297.063H2119V295.966Z" fill="black" fill-opacity="0.5"/>
<path d="M2119 274.787H1059.99V275.884H2119V274.787Z" fill="black" fill-opacity="0.5"/>
<path d="M2119 253.605H1059.99V254.702H2119V253.605Z" fill="black" fill-opacity="0.5"/>
<path d="M2119 232.426H1059.99V233.523H2119V232.426Z" fill="black" fill-opacity="0.5"/>
<path d="M2119 190.064H1059.99V191.161H2119V190.064Z" fill="black" fill-opacity="0.5"/>
<path d="M2119 168.882H1059.99V169.979H2119V168.882Z" fill="black" fill-opacity="0.5"/>
<path d="M2119 147.703H1059.99V148.8H2119V147.703Z" fill="black" fill-opacity="0.5"/>
<path d="M2119 126.521H1059.99V127.618H2119V126.521Z" fill="black" fill-opacity="0.5"/>
<path d="M1059 636.39H2120V-1H1059L1059 0.977175H1060.97H2118.03V634.417H1060.97H1059L1059 636.39Z" fill="black"/>
<path d="M2119.01 422.61H1059.99V424.587H2119.01V422.61Z" fill="black"/>
<path d="M2119.01 528.511H1059.99V530.489H2119.01V528.511Z" fill="black"/>
<path d="M2119.01 316.708H1059.99V318.686H2119.01V316.708Z" fill="black"/>
<path d="M2119.01 210.807H1059.99V212.78H2119.01V210.807Z" fill="black"/>
<path d="M2119.01 104.902H1059.99V106.879H2119.01V104.902Z" fill="black"/>
<path d="M1378.68 -0.0112305H1376.71V635.405H1378.68V-0.0112305Z" fill="black"/>
<path d="M1272.78 -0.0112305H1270.8V635.405H1272.78V-0.0112305Z" fill="black"/>
<path d="M1166.87 -0.0112305H1164.9V635.405H1166.87V-0.0112305Z" fill="black"/>
</g>
</g>
<g opacity="0.45">
<g opacity="0.1" clip-path="url(#clip3_183_281)">
<path d="M1059 1143.77H-0.0117188V1144.87H1059V1143.77Z" fill="black" fill-opacity="0.5"/>
<path d="M1059 1122.59H-0.0117188V1123.69H1059V1122.59Z" fill="black" fill-opacity="0.5"/>
<path d="M1059 1101.41H-0.0117188V1102.51H1059V1101.41Z" fill="black" fill-opacity="0.5"/>
<path d="M1059 1080.23H-0.0117188V1081.33H1059V1080.23Z" fill="black" fill-opacity="0.5"/>
<path d="M1059 1037.87H-0.0117188V1038.96H1059V1037.87Z" fill="black" fill-opacity="0.5"/>
<path d="M1059 1016.69H-0.0117188V1017.79H1059V1016.69Z" fill="black" fill-opacity="0.5"/>
<path d="M1059 995.51H-0.0117188V996.607H1059V995.51Z" fill="black" fill-opacity="0.5"/>
<path d="M1059 974.327H-0.0117188V975.424H1059V974.327Z" fill="black" fill-opacity="0.5"/>
<path d="M1059 931.966H-0.0117188V933.063H1059V931.966Z" fill="black" fill-opacity="0.5"/>
<path d="M1059 910.787H-0.0117188V911.884H1059V910.787Z" fill="black" fill-opacity="0.5"/>
<path d="M1059 889.605H-0.0117188V890.702H1059V889.605Z" fill="black" fill-opacity="0.5"/>
<path d="M1059 868.426H-0.0117188V869.523H1059V868.426Z" fill="black" fill-opacity="0.5"/>
<path d="M1059 826.064H-0.0117188V827.161H1059V826.064Z" fill="black" fill-opacity="0.5"/>
<path d="M1059 804.882H-0.0117188V805.979H1059V804.882Z" fill="black" fill-opacity="0.5"/>
<path d="M1059 783.703H-0.0117188V784.8H1059V783.703Z" fill="black" fill-opacity="0.5"/>
<path d="M1059 762.521H-0.0117188V763.618H1059V762.521Z" fill="black" fill-opacity="0.5"/>
<path d="M1059 720.163H-0.0117188V721.26H1059V720.163Z" fill="black" fill-opacity="0.5"/>
<path d="M1059 698.98H-0.0117188V700.077H1059V698.98Z" fill="black" fill-opacity="0.5"/>
<path d="M1059 677.802H-0.0117188V678.898H1059V677.802Z" fill="black" fill-opacity="0.5"/>
<path d="M1059 656.619H-0.0117188V657.716H1059V656.619Z" fill="black" fill-opacity="0.5"/>
<path d="M508.868 635.989H507.771V1271.41H508.868V635.989Z" fill="black" fill-opacity="0.5"/>
<path d="M487.687 635.989H486.59V1271.41H487.687V635.989Z" fill="black" fill-opacity="0.5"/>
<path d="M466.507 635.989H465.41V1271.41H466.507V635.989Z" fill="black" fill-opacity="0.5"/>
<path d="M445.325 635.989H444.229V1271.41H445.325V635.989Z" fill="black" fill-opacity="0.5"/>
<path d="M402.964 635.989H401.867V1271.41H402.964V635.989Z" fill="black" fill-opacity="0.5"/>
<path d="M381.784 635.989H380.688V1271.41H381.784V635.989Z" fill="black" fill-opacity="0.5"/>
<path d="M360.603 635.989H359.506V1271.41H360.603V635.989Z" fill="black" fill-opacity="0.5"/>
<path d="M339.425 635.989H338.328V1271.41H339.425V635.989Z" fill="black" fill-opacity="0.5"/>
<path d="M297.064 635.989H295.967V1271.41H297.064V635.989Z" fill="black" fill-opacity="0.5"/>
<path d="M275.884 635.989H274.787V1271.41H275.884V635.989Z" fill="black" fill-opacity="0.5"/>
<path d="M254.7 635.989H253.604V1271.41H254.7V635.989Z" fill="black" fill-opacity="0.5"/>
<path d="M233.523 635.989H232.426V1271.41H233.523V635.989Z" fill="black" fill-opacity="0.5"/>
<path d="M191.161 635.989H190.064V1271.41H191.161V635.989Z" fill="black" fill-opacity="0.5"/>
<path d="M169.98 635.989H168.883V1271.41H169.98V635.989Z" fill="black" fill-opacity="0.5"/>
<path d="M148.8 635.989H147.703V1271.41H148.8V635.989Z" fill="black" fill-opacity="0.5"/>
<path d="M127.616 635.989H126.52V1271.41H127.616V635.989Z" fill="black" fill-opacity="0.5"/>
<path d="M85.257 635.989H84.1602V1271.41H85.257V635.989Z" fill="black" fill-opacity="0.5"/>
<path d="M64.0773 635.989H62.9805V1271.41H64.0773V635.989Z" fill="black" fill-opacity="0.5"/>
<path d="M42.8976 635.989H41.8008V1271.41H42.8976V635.989Z" fill="black" fill-opacity="0.5"/>
<path d="M21.716 635.989H20.6191V1271.41H21.716V635.989Z" fill="black" fill-opacity="0.5"/>
<path d="M1059 1249.67H-0.0117188V1250.77H1059V1249.67Z" fill="black" fill-opacity="0.5"/>
<path d="M1059 1228.49H-0.0117188V1229.59H1059V1228.49Z" fill="black" fill-opacity="0.5"/>
<path d="M1059 1207.31H-0.0117188V1208.41H1059V1207.31Z" fill="black" fill-opacity="0.5"/>
<path d="M1059 1186.13H-0.0117188V1187.23H1059V1186.13Z" fill="black" fill-opacity="0.5"/>
<path d="M1059 1143.77H-0.0117188V1144.87H1059V1143.77Z" fill="black" fill-opacity="0.5"/>
<path d="M1059 1122.59H-0.0117188V1123.69H1059V1122.59Z" fill="black" fill-opacity="0.5"/>
<path d="M1059 1101.41H-0.0117188V1102.51H1059V1101.41Z" fill="black" fill-opacity="0.5"/>
<path d="M1059 1080.23H-0.0117188V1081.33H1059V1080.23Z" fill="black" fill-opacity="0.5"/>
<path d="M1059 1037.87H-0.0117188V1038.96H1059V1037.87Z" fill="black" fill-opacity="0.5"/>
<path d="M1059 1016.69H-0.0117188V1017.79H1059V1016.69Z" fill="black" fill-opacity="0.5"/>
<path d="M1059 995.506H-0.0117188V996.603H1059V995.506Z" fill="black" fill-opacity="0.5"/>
<path d="M1059 974.327H-0.0117188V975.424H1059V974.327Z" fill="black" fill-opacity="0.5"/>
<path d="M1059 931.966H-0.0117188V933.063H1059V931.966Z" fill="black" fill-opacity="0.5"/>
<path d="M1059 910.787H-0.0117188V911.884H1059V910.787Z" fill="black" fill-opacity="0.5"/>
<path d="M1059 889.605H-0.0117188V890.702H1059V889.605Z" fill="black" fill-opacity="0.5"/>
<path d="M1059 868.426H-0.0117188V869.523H1059V868.426Z" fill="black" fill-opacity="0.5"/>
<path d="M1059 826.064H-0.0117188V827.161H1059V826.064Z" fill="black" fill-opacity="0.5"/>
<path d="M1059 804.882H-0.0117188V805.979H1059V804.882Z" fill="black" fill-opacity="0.5"/>
<path d="M1059 783.703H-0.0117188V784.8H1059V783.703Z" fill="black" fill-opacity="0.5"/>
<path d="M1059 762.521H-0.0117188V763.618H1059V762.521Z" fill="black" fill-opacity="0.5"/>
<path d="M1038.38 635.989H1037.28V1271.41H1038.38V635.989Z" fill="black" fill-opacity="0.5"/>
<path d="M1017.2 635.989H1016.11V1271.41H1017.2V635.989Z" fill="black" fill-opacity="0.5"/>
<path d="M996.019 635.989H994.922V1271.41H996.019V635.989Z" fill="black" fill-opacity="0.5"/>
<path d="M974.841 635.989H973.744V1271.41H974.841V635.989Z" fill="black" fill-opacity="0.5"/>
<path d="M932.48 635.989H931.383V1271.41H932.48V635.989Z" fill="black" fill-opacity="0.5"/>
<path d="M911.296 635.989H910.199V1271.41H911.296V635.989Z" fill="black" fill-opacity="0.5"/>
<path d="M890.118 635.989H889.021V1271.41H890.118V635.989Z" fill="black" fill-opacity="0.5"/>
<path d="M868.939 635.989H867.842V1271.41H868.939V635.989Z" fill="black" fill-opacity="0.5"/>
<path d="M826.577 635.989H825.48V1271.41H826.577V635.989Z" fill="black" fill-opacity="0.5"/>
<path d="M805.396 635.989H804.299V1271.41H805.396V635.989Z" fill="black" fill-opacity="0.5"/>
<path d="M784.216 635.989H783.119V1271.41H784.216V635.989Z" fill="black" fill-opacity="0.5"/>
<path d="M763.034 635.989H761.938V1271.41H763.034V635.989Z" fill="black" fill-opacity="0.5"/>
<path d="M720.673 635.989H719.576V1271.41H720.673V635.989Z" fill="black" fill-opacity="0.5"/>
<path d="M699.493 635.989H698.396V1271.41H699.493V635.989Z" fill="black" fill-opacity="0.5"/>
<path d="M678.312 635.989H677.215V1271.41H678.312V635.989Z" fill="black" fill-opacity="0.5"/>
<path d="M657.132 635.989H656.035V1271.41H657.132V635.989Z" fill="black" fill-opacity="0.5"/>
<path d="M614.771 635.989H613.674V1271.41H614.771V635.989Z" fill="black" fill-opacity="0.5"/>
<path d="M593.591 635.989H592.494V1271.41H593.591V635.989Z" fill="black" fill-opacity="0.5"/>
<path d="M572.409 635.989H571.312V1271.41H572.409V635.989Z" fill="black" fill-opacity="0.5"/>
<path d="M551.232 635.989H550.135V1271.41H551.232V635.989Z" fill="black" fill-opacity="0.5"/>
<path d="M1059.01 1058.61H-0.0117188V1060.59H1059.01V1058.61Z" fill="black"/>
<path d="M1059.01 1164.51H-0.0117188V1166.49H1059.01V1164.51Z" fill="black"/>
<path d="M1059.01 952.708H-0.0117188V954.686H1059.01V952.708Z" fill="black"/>
<path d="M1059.01 846.807H-0.0117188V848.78H1059.01V846.807Z" fill="black"/>
<path d="M1059.01 740.902H-0.0117188V742.879H1059.01V740.902Z" fill="black"/>
<path d="M424.585 635.989H422.607V1271.41H424.585V635.989Z" fill="black"/>
<path d="M318.681 635.989H316.707V1271.41H318.681V635.989Z" fill="black"/>
<path d="M212.778 635.989H210.805V1271.41H212.778V635.989Z" fill="black"/>
<path d="M106.874 635.989H104.9V1271.41H106.874V635.989Z" fill="black"/>
<path d="M954.102 635.989H952.125V1271.41H954.102V635.989Z" fill="black"/>
<path d="M848.192 635.989H846.219V1271.41H848.192V635.989Z" fill="black"/>
<path d="M742.29 635.989H740.316V1271.41H742.29V635.989Z" fill="black"/>
<path d="M636.388 635.989H634.414V1271.41H636.388V635.989Z" fill="black"/>
<path d="M530.487 635.989H528.514V1271.41H530.487V635.989Z" fill="black"/>
</g>
<g opacity="0.1" clip-path="url(#clip4_183_281)">
<path d="M2119 1143.77H1059.99V1144.87H2119V1143.77Z" fill="black" fill-opacity="0.5"/>
<path d="M2119 1122.59H1059.99V1123.69H2119V1122.59Z" fill="black" fill-opacity="0.5"/>
<path d="M2119 1101.41H1059.99V1102.51H2119V1101.41Z" fill="black" fill-opacity="0.5"/>
<path d="M2119 1080.23H1059.99V1081.33H2119V1080.23Z" fill="black" fill-opacity="0.5"/>
<path d="M2119 1037.87H1059.99V1038.96H2119V1037.87Z" fill="black" fill-opacity="0.5"/>
<path d="M2119 1016.69H1059.99V1017.79H2119V1016.69Z" fill="black" fill-opacity="0.5"/>
<path d="M2119 995.51H1059.99V996.607H2119V995.51Z" fill="black" fill-opacity="0.5"/>
<path d="M2119 974.327H1059.99V975.424H2119V974.327Z" fill="black" fill-opacity="0.5"/>
<path d="M2119 931.966H1059.99V933.063H2119V931.966Z" fill="black" fill-opacity="0.5"/>
<path d="M2119 910.787H1059.99V911.884H2119V910.787Z" fill="black" fill-opacity="0.5"/>
<path d="M2119 889.605H1059.99V890.702H2119V889.605Z" fill="black" fill-opacity="0.5"/>
<path d="M2119 868.426H1059.99V869.523H2119V868.426Z" fill="black" fill-opacity="0.5"/>
<path d="M2119 826.064H1059.99V827.161H2119V826.064Z" fill="black" fill-opacity="0.5"/>
<path d="M2119 804.882H1059.99V805.979H2119V804.882Z" fill="black" fill-opacity="0.5"/>
<path d="M2119 783.703H1059.99V784.8H2119V783.703Z" fill="black" fill-opacity="0.5"/>
<path d="M2119 762.521H1059.99V763.618H2119V762.521Z" fill="black" fill-opacity="0.5"/>
<path d="M2119 720.163H1059.99V721.26H2119V720.163Z" fill="black" fill-opacity="0.5"/>
<path d="M2119 698.98H1059.99V700.077H2119V698.98Z" fill="black" fill-opacity="0.5"/>
<path d="M2119 677.802H1059.99V678.898H2119V677.802Z" fill="black" fill-opacity="0.5"/>
<path d="M2119 656.619H1059.99V657.716H2119V656.619Z" fill="black" fill-opacity="0.5"/>
<path d="M1420.6 635.989H1419.51V1271.41H1420.6V635.989Z" fill="black" fill-opacity="0.5"/>
<path d="M1399.42 635.989H1398.33V1271.41H1399.42V635.989Z" fill="black" fill-opacity="0.5"/>
<path d="M1357.06 635.989H1355.97V1271.41H1357.06V635.989Z" fill="black" fill-opacity="0.5"/>
<path d="M1335.88 635.989H1334.79V1271.41H1335.88V635.989Z" fill="black" fill-opacity="0.5"/>
<path d="M1314.7 635.989H1313.6V1271.41H1314.7V635.989Z" fill="black" fill-opacity="0.5"/>
<path d="M1293.52 635.989H1292.43V1271.41H1293.52V635.989Z" fill="black" fill-opacity="0.5"/>
<path d="M1251.16 635.989H1250.06V1271.41H1251.16V635.989Z" fill="black" fill-opacity="0.5"/>
<path d="M1229.98 635.989H1228.88V1271.41H1229.98V635.989Z" fill="black" fill-opacity="0.5"/>
<path d="M1208.8 635.989H1207.7V1271.41H1208.8V635.989Z" fill="black" fill-opacity="0.5"/>
<path d="M1187.62 635.989H1186.52V1271.41H1187.62V635.989Z" fill="black" fill-opacity="0.5"/>
<path d="M1145.26 635.989H1144.16V1271.41H1145.26V635.989Z" fill="black" fill-opacity="0.5"/>
<path d="M1124.08 635.989H1122.98V1271.41H1124.08V635.989Z" fill="black" fill-opacity="0.5"/>
<path d="M1102.9 635.989H1101.8V1271.41H1102.9V635.989Z" fill="black" fill-opacity="0.5"/>
<path d="M1081.72 635.989H1080.62V1271.41H1081.72V635.989Z" fill="black" fill-opacity="0.5"/>
<path d="M2119 1249.67H1059.99V1250.77H2119V1249.67Z" fill="black" fill-opacity="0.5"/>
<path d="M2119 1228.49H1059.99V1229.59H2119V1228.49Z" fill="black" fill-opacity="0.5"/>
<path d="M2119 1207.31H1059.99V1208.41H2119V1207.31Z" fill="black" fill-opacity="0.5"/>
<path d="M2119 1186.13H1059.99V1187.23H2119V1186.13Z" fill="black" fill-opacity="0.5"/>
<path d="M2119 1143.77H1059.99V1144.87H2119V1143.77Z" fill="black" fill-opacity="0.5"/>
<path d="M2119 1122.59H1059.99V1123.69H2119V1122.59Z" fill="black" fill-opacity="0.5"/>
<path d="M2119 1101.41H1059.99V1102.51H2119V1101.41Z" fill="black" fill-opacity="0.5"/>
<path d="M2119 1080.23H1059.99V1081.33H2119V1080.23Z" fill="black" fill-opacity="0.5"/>
<path d="M2119 1037.87H1059.99V1038.96H2119V1037.87Z" fill="black" fill-opacity="0.5"/>
<path d="M2119 1016.69H1059.99V1017.79H2119V1016.69Z" fill="black" fill-opacity="0.5"/>
<path d="M2119 995.506H1059.99V996.603H2119V995.506Z" fill="black" fill-opacity="0.5"/>
<path d="M2119 974.327H1059.99V975.424H2119V974.327Z" fill="black" fill-opacity="0.5"/>
<path d="M2119 931.966H1059.99V933.063H2119V931.966Z" fill="black" fill-opacity="0.5"/>
<path d="M2119 910.787H1059.99V911.884H2119V910.787Z" fill="black" fill-opacity="0.5"/>
<path d="M2119 889.605H1059.99V890.702H2119V889.605Z" fill="black" fill-opacity="0.5"/>
<path d="M2119 868.426H1059.99V869.523H2119V868.426Z" fill="black" fill-opacity="0.5"/>
<path d="M2119 826.064H1059.99V827.161H2119V826.064Z" fill="black" fill-opacity="0.5"/>
<path d="M2119 804.882H1059.99V805.979H2119V804.882Z" fill="black" fill-opacity="0.5"/>
<path d="M2119 783.703H1059.99V784.8H2119V783.703Z" fill="black" fill-opacity="0.5"/>
<path d="M2119 762.521H1059.99V763.618H2119V762.521Z" fill="black" fill-opacity="0.5"/>
<path d="M2119.01 1058.61H1059.99V1060.59H2119.01V1058.61Z" fill="black"/>
<path d="M2119.01 1164.51H1059.99V1166.49H2119.01V1164.51Z" fill="black"/>
<path d="M2119.01 952.708H1059.99V954.686H2119.01V952.708Z" fill="black"/>
<path d="M2119.01 846.807H1059.99V848.78H2119.01V846.807Z" fill="black"/>
<path d="M2119.01 740.902H1059.99V742.879H2119.01V740.902Z" fill="black"/>
<path d="M1378.68 635.989H1376.71V1271.41H1378.68V635.989Z" fill="black"/>
<path d="M1272.78 635.989H1270.8V1271.41H1272.78V635.989Z" fill="black"/>
<path d="M1166.87 635.989H1164.9V1271.41H1166.87V635.989Z" fill="black"/>
</g>
<rect x="1058" y="635" width="2" height="413" fill="#DEDCDA"/>
</g>
</g>
<defs>
<filter id="filter0_n_183_281" x="0" y="0" width="1440" height="1272" filterUnits="userSpaceOnUse" color-interpolation-filters="sRGB">
<feFlood flood-opacity="0" result="BackgroundImageFix"/>
<feBlend mode="normal" in="SourceGraphic" in2="BackgroundImageFix" result="shape"/>
<feTurbulence type="fractalNoise" baseFrequency="2 2" stitchTiles="stitch" numOctaves="3" result="noise" seed="5291" />
<feColorMatrix in="noise" type="luminanceToAlpha" result="alphaNoise" />
<feComponentTransfer in="alphaNoise" result="coloredNoise1">
<feFuncA type="discrete" tableValues="0 0 0 0 0 0 0 0 0 0 0 0 0 0 0 0 0 0 0 0 0 0 1 1 1 1 1 1 0 0 0 0 0 0 0 0 0 0 0 0 0 0 0 0 0 0 0 0 0 0 0 0 0 0 0 0 0 0 0 0 0 0 0 0 0 0 0 0 0 0 0 0 0 0 0 0 0 0 0 0 0 0 0 0 0 0 0 0 0 0 0 0 0 0 0 0 0 0 0 0 "/>
</feComponentTransfer>
<feComposite operator="in" in2="shape" in="coloredNoise1" result="noise1Clipped" />
<feFlood flood-color="rgba(0, 0, 0, 0.25)" result="color1Flood" />
<feComposite operator="in" in2="noise1Clipped" in="color1Flood" result="color1" />
<feMerge result="effect1_noise_183_281">
<feMergeNode in="shape" />
<feMergeNode in="color1" />
</feMerge>
</filter>
<clipPath id="clip0_183_281">
<rect width="1440" height="1272" fill="white"/>
</clipPath>
<clipPath id="clip1_183_281">
<rect width="1061" height="637.39" fill="white" transform="translate(-1 -1)"/>
</clipPath>
<clipPath id="clip2_183_281">
<rect width="1061" height="637.39" fill="white" transform="translate(1059 -1)"/>
</clipPath>
<clipPath id="clip3_183_281">
<rect width="1061" height="637.39" fill="white" transform="translate(-1 635)"/>
</clipPath>
<clipPath id="clip4_183_281">
<rect width="1061" height="637.39" fill="white" transform="translate(1059 635)"/>
</clipPath>
</defs>
</svg>
