<svg width="357" height="143" viewBox="0 0 357 143" fill="none" xmlns="http://www.w3.org/2000/svg">
<rect x="307" y="20" width="49.25" height="49.25" rx="2.39595" fill="black"/>
<g clip-path="url(#clip0_168_276)">
<path fill-rule="evenodd" clip-rule="evenodd" d="M322.512 31.9072H339.534C340.668 31.9069 341.755 32.3568 342.556 33.158C343.357 33.9592 343.808 35.046 343.808 36.1792V53.2002C343.808 55.5603 341.894 57.4734 339.534 57.4734H322.512C320.153 57.4727 318.24 55.5598 318.24 53.2002V36.1792C318.24 33.8199 320.153 31.9072 322.512 31.9072ZM337.814 52.8256C338.559 52.8256 339.162 52.2219 339.162 51.4772L339.159 37.9046C339.159 37.16 338.555 36.5563 337.81 36.5563H324.239C323.881 36.5563 323.538 36.6985 323.285 36.9517C323.032 37.2048 322.89 37.5481 322.891 37.9059V51.4772C322.891 52.2219 323.494 52.8256 324.239 52.8256H337.814Z" fill="white"/>
<path d="M328.311 48.1569C327.886 48.1535 327.543 47.808 327.543 47.3829V41.9647C327.542 41.7588 327.623 41.561 327.768 41.415C327.914 41.2691 328.111 41.187 328.317 41.187H333.743C333.948 41.1873 334.146 41.2695 334.291 41.4154C334.436 41.5613 334.517 41.7589 334.517 41.9647V47.3816C334.517 47.5874 334.436 47.7851 334.291 47.931C334.146 48.0769 333.948 48.1591 333.743 48.1594L328.311 48.1569Z" fill="white"/>
</g>
<rect x="307" y="75.25" width="49.25" height="49.25" rx="2.39595" fill="#228800"/>
<g clip-path="url(#clip1_168_276)">
<path d="M331.022 93.8149C331.022 91.381 329.562 89.3121 327.371 88.3385C325.181 87.3649 322.625 87.8517 320.921 89.5555C319.217 91.2593 318.731 93.8149 319.582 96.0055C320.434 98.1961 322.625 99.6564 325.059 99.6564H331.022V93.8149ZM332.726 93.8149C332.726 91.381 334.186 89.3121 336.377 88.3385C338.567 87.3649 341.123 87.8517 342.827 89.5555C344.531 91.2593 345.017 93.8149 344.166 96.0055C343.314 98.1961 341.123 99.6564 338.689 99.6564H332.726V93.8149ZM332.726 107.202C332.726 109.636 334.186 111.705 336.377 112.678C338.567 113.652 341.123 113.165 342.827 111.461C344.531 109.757 345.017 107.202 344.166 105.011C343.314 102.821 341.123 101.36 338.689 101.36H332.726V107.202ZM325.059 111.461C327.371 111.461 329.318 109.636 329.318 107.202V102.942H325.059C322.747 102.942 320.799 104.768 320.799 107.202C320.799 109.636 322.747 111.461 325.059 111.461ZM331.022 107.202C331.022 109.636 329.562 111.705 327.371 112.678C325.181 113.652 322.625 113.165 320.921 111.461C319.217 109.757 318.731 107.202 319.582 105.011C320.434 102.821 322.625 101.36 325.059 101.36H331.022V107.202Z" fill="white"/>
</g>
<rect x="252" width="49.25" height="49.25" rx="2.39595" fill="#FF4C00"/>
<path d="M289.465 29.3283C289.488 27.6737 289.415 26.0191 289.247 24.3757C289.123 23.2651 288.748 21.8405 287.542 21.5488C287.697 21.5882 287.861 21.5824 288.013 21.532C289.409 20.8028 289.303 19.0024 288.809 17.7012C288.159 15.9961 286.616 14.7846 285.085 13.9825C282.245 12.5665 279.096 11.8837 275.925 11.9964C272.754 12.109 269.661 13.0136 266.929 14.6275C265.544 15.4801 263.951 17.1459 264.652 19.0024C264.842 19.4644 265.122 19.8839 265.477 20.2364L266.004 20.786C265.291 21.7507 264.77 22.6257 264.433 23.798C263.424 27.3315 263.592 29.6031 263.867 32.4412C264.041 34.1967 264.618 36.8104 266.643 37.1021C268.292 37.3321 270.081 36.788 271.73 36.5917C273.548 36.3786 275.382 36.042 277.221 36.0925C279.813 36.1598 282.382 36.7712 284.978 36.7992C286.347 36.8104 288.624 36.945 289.034 35.139C289.421 33.4227 289.437 31.6391 289.437 29.8891C289.46 29.7041 289.46 29.5134 289.46 29.3339L289.465 29.3283ZM286.504 32.2953C285.859 33.748 284.036 33.5854 282.763 33.4788L277.07 32.8001C275.376 32.7496 273.699 33.0693 272.05 33.4339C270.816 33.7031 269.094 34.4155 267.978 33.4676C266.739 32.4187 266.52 30.6295 266.503 29.1207C266.526 27.7584 266.661 26.4002 266.907 25.0599C267.058 24.2298 267.305 23.4222 267.63 22.6482C268.073 21.5264 268.73 20.8477 268.763 20.8814C268.432 20.5392 268.034 20.3541 267.81 19.8886C266.963 18.1218 269.077 16.6243 270.233 16.1139C274.277 14.3078 279.93 14.4873 283.75 16.8038C284.939 17.5273 287.25 20.012 285.091 21.2516C286.42 21.8797 286.762 23.7755 286.908 25.1216C287.141 27.2837 287.073 29.4677 286.706 31.6111C286.666 31.8471 286.602 32.077 286.504 32.2953Z" fill="white"/>
<rect x="252.5" y="94.5" width="48" height="48" rx="1.88378" fill="white" stroke="black"/>
<mask id="mask0_168_276" style="mask-type:alpha" maskUnits="userSpaceOnUse" x="252" y="94" width="49" height="49">
<rect x="252.5" y="94.5" width="48" height="48" rx="1.88378" stroke="white"/>
</mask>
<g mask="url(#mask0_168_276)">
</g>
<path fill-rule="evenodd" clip-rule="evenodd" d="M276.479 105.847C283.463 105.847 289.139 111.307 289.11 118.391C289.11 125.474 283.463 130.935 276.479 130.935C269.494 130.935 263.848 125.504 263.848 118.391C263.848 111.307 269.494 105.847 276.479 105.847ZM276.479 124.442C279.837 124.442 282.571 121.815 282.571 118.391C282.571 114.996 279.837 112.37 276.479 112.399C273.121 112.399 270.416 114.996 270.416 118.42C270.416 121.815 273.121 124.442 276.479 124.442Z" fill="black"/>
<circle opacity="0.05" cx="185" cy="70" r="56.5" stroke="black"/>
<circle cx="185" cy="70" r="40" fill="#F7F4F2"/>
<circle cx="185" cy="70" r="39.5" stroke="black" stroke-opacity="0.1"/>
<rect x="167.245" y="58.2451" width="35.7184" height="24.0791" rx="12.0395" stroke="#101010" stroke-width="4.49013"/>
<path d="M179.056 64.235C179.448 65.5046 180.237 66.8169 181.379 67.9591C182.522 69.102 183.836 69.8908 185.107 70.2834C183.837 70.6762 182.524 71.4634 181.381 72.6057C180.239 73.7482 179.451 75.0618 179.058 76.3318C178.665 75.0622 177.877 73.7493 176.735 72.6071C175.592 71.464 174.278 70.6753 173.008 70.2827C174.278 69.8899 175.591 69.1028 176.733 67.9604C177.876 66.8181 178.663 65.5048 179.056 64.235Z" fill="#101010"/>
<path d="M191.148 64.2348C191.541 65.5048 192.328 66.8184 193.471 67.9609C194.613 69.1029 195.926 69.8902 197.195 70.2832C195.926 70.6763 194.614 71.4636 193.473 72.6048C192.33 73.7474 191.542 75.0615 191.149 76.3316C190.756 75.0619 189.969 73.7484 188.827 72.6062C187.684 71.4632 186.37 70.6758 185.1 70.2832C186.37 69.8904 187.683 69.102 188.825 67.9596C189.967 66.8173 190.755 65.5044 191.148 64.2348Z" fill="#101010"/>
<path d="M86 72H120" stroke="black" stroke-dasharray="2 2"/>
<path d="M249 72H283" stroke="black" stroke-dasharray="2 2"/>
<circle cx="39" cy="70" r="39" fill="#F7F4F2"/>
<circle cx="39" cy="70" r="38.5" stroke="black" stroke-opacity="0.1"/>
<g clip-path="url(#clip2_168_276)">
<path d="M36.3043 80.2167C35.3589 80.8276 34.2323 81.0939 33.1139 80.9706C31.9955 80.8474 30.9536 80.3423 30.1633 79.5401L29.4725 78.8636C29.1696 78.5533 29 78.1366 29 77.7027C29 77.2687 29.1696 76.8521 29.4725 76.5419L32.4048 73.6357C32.712 73.3333 33.1255 73.1639 33.5562 73.1639C33.987 73.1639 34.4005 73.3333 34.7077 73.6357C35.0175 73.9391 35.4335 74.1089 35.8668 74.1089C36.3001 74.1089 36.7161 73.9391 37.0259 73.6357L41.6317 69.0229C41.7853 68.8712 41.9073 68.6905 41.9906 68.4912C42.0739 68.2919 42.1168 68.078 42.1168 67.862C42.1168 67.6459 42.0739 67.432 41.9906 67.2327C41.9073 67.0334 41.7853 66.8527 41.6317 66.7011C41.3298 66.3934 41.1606 65.9793 41.1606 65.5479C41.1606 65.1165 41.3298 64.7023 41.6317 64.3947L44.5487 61.4732C44.8584 61.1698 45.2746 61 45.7077 61C46.141 61 46.5571 61.1698 46.8669 61.4732L47.5424 62.1651C48.3433 62.9566 48.8476 64.0001 48.9706 65.1202C49.0937 66.2403 48.8279 67.3687 48.2179 68.3156C45.0399 73.0064 40.9962 77.0459 36.3043 80.2167Z" fill="black"/>
</g>
<defs>
<clipPath id="clip0_168_276">
<rect width="26.7283" height="25.5662" fill="white" transform="translate(318.24 31.9072)"/>
</clipPath>
<clipPath id="clip1_168_276">
<rect width="26.7737" height="26.7737" fill="white" transform="translate(318 87)"/>
</clipPath>
<clipPath id="clip2_168_276">
<rect width="20" height="20" fill="white" transform="translate(29 61)"/>
</clipPath>
</defs>
</svg>
