<svg width="175" height="30" viewBox="0 0 175 30" fill="none" xmlns="http://www.w3.org/2000/svg">
<path d="M146.875 29.0004V6.55017H152.875V9.52992H152.957C154.345 7.08081 156.671 5.81543 159.529 5.81543C163.978 5.81543 167.162 8.75437 167.162 14.5506V29.0004H161.08V15.2853C161.08 11.979 159.61 10.4687 157.284 10.4687C155.12 10.4687 152.957 11.8566 152.957 15.7343V29.0004H146.875Z" fill="white"/>
<path d="M137.642 25.1226C136.254 28.2656 133.356 29.7351 130.009 29.7351C125.601 29.7351 122.213 27.2452 122.213 22.5102C122.213 17.3671 126.295 15.3262 130.744 15.3262H134.418C136.581 15.3262 137.52 14.469 137.52 13.0811C137.52 11.2443 135.887 10.4279 133.805 10.4279C131.111 10.4279 129.601 11.6933 129.519 13.8159H123.07C123.397 8.95846 126.54 5.81543 133.601 5.81543C140.867 5.81543 143.602 9.12173 143.602 13.7342V22.6735C143.602 23.8164 144.01 24.2246 145.153 24.2246H145.928V29.0004H141.765C139.112 29.0004 137.724 27.8166 137.724 25.6533V25.1226H137.642ZM128.703 22.1837C128.703 23.7348 129.724 24.9593 132.091 24.9593C134.785 24.9593 137.52 23.3674 137.52 19.1223V17.2854H137.438C136.826 18.5508 135.642 19.1631 133.52 19.3264L132.009 19.4488C129.805 19.5713 128.703 20.5917 128.703 22.1837Z" fill="white"/>
<path d="M87.7168 29.0004V6.55017H93.7171V9.40746H93.7988C95.0233 7.24408 97.1459 5.81543 100.044 5.81543C103.024 5.81543 105.391 7.2849 106.534 9.97892H106.616C108.044 7.2849 110.453 5.81543 113.555 5.81543C117.882 5.81543 120.943 8.79518 120.943 14.2649V29.0004H114.861V14.8772C114.861 11.8974 113.514 10.4687 111.392 10.4687C109.269 10.4687 107.351 11.8974 107.351 15.367V29.0004H101.309V14.8772C101.309 11.8974 99.9624 10.4687 97.799 10.4687C95.7172 10.4687 93.7988 11.8974 93.7988 15.4078V29.0004H87.7168Z" fill="white"/>
<path d="M74.7237 29.7351C68.3152 29.7351 63.2129 25.5308 63.2129 17.7753C63.2129 10.0197 68.3152 5.81543 74.7237 5.81543C81.1322 5.81543 86.2346 10.0197 86.2346 17.7753C86.2346 25.5308 81.1322 29.7351 74.7237 29.7351ZM69.703 17.7753C69.703 22.5919 71.5399 25.1226 74.7237 25.1226C77.9076 25.1226 79.7444 22.5919 79.7444 17.7753C79.7444 12.9587 77.9076 10.4279 74.7237 10.4279C71.5399 10.4279 69.703 12.9587 69.703 17.7753Z" fill="white"/>
<path d="M52.5884 24.0607H64.1401V28.9998H46.2207V0.426758H52.5884V24.0607Z" fill="white"/>
<path d="M169.151 8.59762V6.03657H168.18V5.48438H170.693V6.03657H169.732V8.59762H169.151ZM171.274 8.59762V5.48438H171.959L172.959 7.91213L173.959 5.48438H174.644V8.59762H174.092V6.48404L173.226 8.59762H172.692L171.826 6.48404V8.59762H171.274Z" fill="white"/>
<rect x="2.24507" y="2.45307" width="35.7184" height="24.0791" rx="12.0395" stroke="white" stroke-width="4.49013"/>
<path d="M14.0555 8.44254C14.4484 9.71209 15.2371 11.0245 16.3792 12.1666C17.5222 13.3096 18.8362 14.0983 20.1067 14.4909C18.8369 14.8837 17.5236 15.6709 16.3812 16.8132C15.2387 17.9557 14.4511 19.2693 14.0583 20.5393C13.6654 19.2697 12.8775 17.9568 11.7353 16.8146C10.5922 15.6715 9.27837 14.8828 8.00781 14.4902C9.27763 14.0974 10.5909 13.3103 11.7332 12.168C12.8756 11.0256 13.6626 9.71234 14.0555 8.44254Z" fill="white"/>
<path d="M26.148 8.44282C26.5408 9.71282 27.3284 11.0264 28.471 12.1689C29.613 13.3109 30.9256 14.0982 32.195 14.4912C30.9263 14.8843 29.6143 15.6716 28.473 16.8128C27.3304 17.9554 26.5422 19.2695 26.1494 20.5396C25.7565 19.2699 24.9694 17.9564 23.8271 16.8142C22.684 15.6712 21.3701 14.8838 20.0996 14.4912C21.3696 14.0984 22.6825 13.31 23.825 12.1676C24.9672 11.0253 25.7551 9.71245 26.148 8.44282Z" fill="white"/>
</svg>
