<svg width="83" height="15" viewBox="0 0 83 15" fill="none" xmlns="http://www.w3.org/2000/svg">
<path d="M72.2793 13.9999V2.99493H75.2206V4.45559H75.2607C75.941 3.25505 77.0815 2.63477 78.4821 2.63477C80.6631 2.63477 82.2238 4.07542 82.2238 6.91671V13.9999H79.2425V7.27688C79.2425 5.65614 78.5221 4.9158 77.3816 4.9158C76.3211 4.9158 75.2607 5.59611 75.2607 7.49698V13.9999H72.2793Z" fill="black"/>
<path d="M67.7529 12.0991C67.0726 13.6398 65.6519 14.3601 64.0112 14.3601C61.8502 14.3601 60.1895 13.1395 60.1895 10.8185C60.1895 8.29734 62.1904 7.29689 64.3714 7.29689H66.1722C67.2327 7.29689 67.6929 6.87669 67.6929 6.19638C67.6929 5.29598 66.8925 4.89579 65.872 4.89579C64.5514 4.89579 63.8111 5.51608 63.7711 6.55655H60.6096C60.7697 4.17547 62.3104 2.63477 65.772 2.63477C69.3336 2.63477 70.6742 4.2555 70.6742 6.51653V10.8985C70.6742 11.4588 70.8743 11.6589 71.4346 11.6589H71.8147V13.9999H69.7738C68.4732 13.9999 67.7929 13.4197 67.7929 12.3592V12.0991H67.7529ZM63.3709 10.6584C63.3709 11.4188 63.8711 12.019 65.0317 12.019C66.3523 12.019 67.6929 11.2387 67.6929 9.15773V8.25732H67.6528C67.3527 8.8776 66.7724 9.17774 65.732 9.25778L64.9916 9.3178C63.9111 9.37783 63.3709 9.87806 63.3709 10.6584Z" fill="black"/>
<path d="M43.2793 13.9999V2.99493H46.2206V4.39557H46.2607C46.8609 3.33508 47.9014 2.63477 49.322 2.63477C50.7827 2.63477 51.9432 3.35509 52.5035 4.67569H52.5435C53.2438 3.35509 54.4244 2.63477 55.9451 2.63477C58.066 2.63477 59.5667 4.09543 59.5667 6.77665V13.9999H56.5854V7.07679C56.5854 5.61612 55.925 4.9158 54.8846 4.9158C53.8441 4.9158 52.9037 5.61612 52.9037 7.3169V13.9999H49.9423V7.07679C49.9423 5.61612 49.282 4.9158 48.2215 4.9158C47.2011 4.9158 46.2607 5.61612 46.2607 7.3369V13.9999H43.2793Z" fill="black"/>
<path d="M36.9101 14.3601C33.7687 14.3601 31.2676 12.2992 31.2676 8.49743C31.2676 4.6957 33.7687 2.63477 36.9101 2.63477C40.0516 2.63477 42.5527 4.6957 42.5527 8.49743C42.5527 12.2992 40.0516 14.3601 36.9101 14.3601ZM34.449 8.49743C34.449 10.8585 35.3494 12.0991 36.9101 12.0991C38.4709 12.0991 39.3713 10.8585 39.3713 8.49743C39.3713 6.13636 38.4709 4.89579 36.9101 4.89579C35.3494 4.89579 34.449 6.13636 34.449 8.49743Z" fill="black"/>
<path d="M26.0589 11.5789H31.7215V14H22.9375V-0.00634766H26.0589V11.5789Z" fill="black"/>
<rect x="1.26459" y="1.10419" width="17.509" height="11.8035" rx="5.90173" stroke="black" stroke-width="2.20105"/>
<path d="M7.05454 4.0375C7.24676 4.66105 7.63288 5.30637 8.19392 5.86741C8.75475 6.42817 9.39984 6.81386 10.0231 7.0061C9.39981 7.19837 8.75476 7.58398 8.19392 8.14479C7.63281 8.70591 7.24673 9.35107 7.05454 9.97471C6.86234 9.35125 6.47745 8.70576 5.91654 8.14479C5.35538 7.58363 4.70962 7.19828 4.08594 7.0061C4.70961 6.81393 5.35539 6.42856 5.91654 5.86741C6.47746 5.30646 6.86232 4.66095 7.05454 4.0375Z" fill="black"/>
<path d="M12.9837 4.03612C13.1757 4.65991 13.5611 5.30542 14.1223 5.86672C14.6838 6.42812 15.3297 6.81404 15.9536 7.0061C15.3298 7.19815 14.6844 7.58355 14.123 8.14479C13.5616 8.70624 13.1757 9.35211 12.9837 9.97609C12.7916 9.35215 12.4057 8.70622 11.8443 8.14479C11.283 7.58357 10.6375 7.19816 10.0137 7.0061C10.6375 6.81405 11.283 6.42862 11.8443 5.86741C12.4057 5.30601 12.7916 4.66004 12.9837 4.03612Z" fill="black"/>
</svg>
