<svg version="1.1" id="Layer_1" xmlns="http://www.w3.org/2000/svg" xmlns:xlink="http://www.w3.org/1999/xlink" x="0px" y="0px"
	 width="100%" viewBox="0 0 250 100" enable-background="new 0 0 250 100" xml:space="preserve">
<defs>
  <mask id="cut-mask">
    <rect width="100%" height="100%" fill="white"/>
    <path fill="black" d="M96.711769,59.059982 C102.025024,58.559917 100.874405,61.739059 100.730209,64.770218 C93.808090,64.770218 87.128021,64.770218 80.077530,64.770218 C79.987320,63.050198 79.904900,61.478718 79.778084,59.060757 C85.495247,59.060757 90.870911,59.060757 96.711769,59.059982z"/>
  </mask>
</defs>
<g mask="url(#cut-mask)">
<path fill="#000000" opacity="1.000000" stroke="none" d="
M115.601112,75.880539 C115.601112,62.277637 115.601112,48.674736 115.601112,34.848598 C113.225578,34.574764 110.994759,34.317612 108.838463,34.069050 C108.536446,32.172626 108.284843,30.592802 108.023956,28.954632 C95.999954,28.954632 84.244019,28.954632 72.228722,28.954632 C72.042229,30.770426 71.878899,32.360649 71.697289,34.128822 C69.410851,34.356155 67.318619,34.564178 65.295135,34.765366 C65.295135,36.891144 65.295135,38.778458 65.295135,41.118591 C77.261292,41.118591 88.846909,41.118591 100.592133,41.118591 C100.592133,43.159264 100.592133,44.736012 100.592133,46.950043 C90.959862,46.950043 81.566666,46.950043 72.278236,46.950043 C72.001816,49.177353 71.804855,50.764378 71.597610,52.434269 C69.297302,52.604141 67.345947,52.748245 65.320099,52.897850 C65.320099,58.931061 65.320099,64.802734 65.320099,70.643234 C67.675758,70.835808 69.616302,70.994446 71.652641,71.160919 C71.885147,73.038559 72.081673,74.625648 72.299759,76.386887 C79.604362,76.386887 86.687782,76.386887 93.940498,76.386887 C94.175156,74.529839 94.376846,72.933655 94.594917,71.207809 C96.711891,71.207809 98.590683,71.207809 100.529869,71.207809 C100.799408,73.112701 101.023552,74.696747 101.273346,76.462059 C105.965012,76.462059 110.427917,76.462059 115.601112,75.880539
M43.177414,18.933464 C43.177414,30.021917 43.177414,41.110371 43.177414,52.294235 C40.519501,52.585388 38.457943,52.811214 36.364799,53.040501 C36.122898,54.951500 35.922363,56.535725 35.732334,58.036945 C33.538555,58.036945 31.654127,58.036945 29.801294,58.036945 C29.479824,56.084122 29.221270,54.513485 28.968676,52.979061 C26.547729,52.713776 24.477654,52.486942 21.964878,52.211597 C21.964878,40.082237 21.964878,28.355413 21.964878,16.565674 C17.064890,16.565674 12.666357,16.565674 8.257565,16.565674 C8.257565,30.612875 8.257565,44.336823 8.257565,58.181541 C10.293179,58.377411 12.064451,58.547840 13.946270,58.728909 C14.207723,60.867733 14.440408,62.771217 14.673912,64.681404 C17.110058,64.909187 19.193508,65.103996 21.327969,65.303566 C21.572073,67.236610 21.773703,68.833313 21.990231,70.547981 C24.266640,70.787270 26.343637,71.005600 28.458101,71.227859 C28.719654,73.124191 28.937679,74.704948 29.146002,76.215347 C31.816521,76.215347 34.179279,76.215347 36.454273,76.215347 C36.719673,74.178642 36.925056,72.602531 37.125858,71.061554 C39.426807,70.895897 41.365856,70.756287 43.441662,70.606834 C43.702221,68.620949 43.928566,66.895874 44.149815,65.209610 C46.571941,64.977470 48.644302,64.778854 50.689537,64.582840 C50.933254,62.357124 51.127632,60.581989 51.331665,58.718685 C53.666779,58.504417 55.776089,58.310867 57.940254,58.112286 C57.940254,44.132561 57.940254,30.422930 57.940254,16.242867 C54.132877,16.242867 50.658588,16.079538 47.213165,16.323629 C45.844048,16.420626 44.538891,17.420422 43.177414,18.933464
M159.123657,49.395187 C159.175934,44.052376 164.299377,48.334194 165.879074,45.719681 C166.127762,44.281078 166.398499,42.714844 166.653809,41.237972 C169.117325,41.016865 171.199112,40.830017 173.271149,40.644043 C173.271149,36.496243 173.271149,32.771137 173.271149,28.915224 C168.292984,28.915224 163.694336,28.915224 158.993820,28.915224 C158.643372,30.833607 158.330109,32.548382 158.027985,34.202179 C155.765594,34.404865 153.829376,34.578327 151.772064,34.762638 C151.541855,36.636227 151.346466,38.226509 151.140717,39.900932 C148.979904,39.900932 147.061951,39.900932 145.097839,39.900932 C144.846481,38.020988 144.634506,36.435520 144.408020,34.741596 C142.035156,34.496006 139.959366,34.281166 138.006149,34.079014 C137.685028,32.084881 137.431259,30.509041 137.182419,28.963814 C132.224762,28.963814 127.629036,28.963814 122.894424,28.963814 C122.894424,33.018078 122.894424,36.790958 122.894424,40.669430 C125.212387,40.911316 127.288788,41.127991 129.275543,41.335316 C129.649429,43.257431 129.951477,44.810249 130.257141,46.381676 C132.520767,46.582016 134.466492,46.754223 136.514084,46.935444 C136.514084,48.710461 136.514084,50.238621 136.514084,51.848759 C134.169937,52.031006 132.220566,52.182564 130.078186,52.349129 C129.842102,54.334354 129.632462,56.097176 129.399826,58.053383 C127.193451,58.286892 125.120796,58.506252 122.941345,58.736912 C122.941345,64.763062 122.941345,70.505577 122.941345,76.247131 C127.954361,76.247131 132.662262,76.247131 137.888077,76.247131 C137.888077,72.074310 137.888077,68.331444 137.888077,64.495918 C140.350098,64.282669 142.291138,64.114540 144.403351,63.931583 C144.662827,62.175602 144.897018,60.590805 145.169312,58.748001 C147.223190,58.748001 149.109650,58.748001 151.088760,58.748001 C151.361969,60.605480 151.597565,62.207176 151.852417,63.939770 C154.070557,64.150467 156.142883,64.347305 158.690735,64.589317 C158.690735,68.714073 158.690735,72.473686 158.690735,76.263031 C163.925201,76.263031 168.629303,76.263031 173.226868,76.263031 C173.226868,70.106262 173.226868,64.380241 173.226868,58.651039 C170.712723,58.440269 168.619385,58.264778 166.461746,58.083893 C166.235260,55.978142 166.046280,54.220993 165.941162,53.243607 C163.261826,52.076843 161.201385,51.179596 159.123657,49.395187
M238.374908,40.246784 C240.637314,40.246784 242.899704,40.246784 245.560440,40.246784 C245.456909,37.981037 245.385529,36.418987 245.308167,34.726131 C242.825409,34.490673 240.750229,34.293865 238.698486,34.099281 C238.410660,32.158981 238.176422,30.579962 237.935379,28.954952 C228.187622,28.954952 218.770493,28.954952 209.160690,28.954952 C208.933273,30.765381 208.733643,32.354492 208.515701,34.089417 C206.248199,34.340275 204.156525,34.571682 202.009521,34.809212 C202.009521,40.798565 202.009521,46.526257 202.009521,52.370686 C204.401154,52.636379 206.462921,52.865433 208.584259,53.101101 C208.786011,55.207890 208.953903,56.960861 209.174789,59.267349 C216.352127,59.267349 223.250656,59.267349 230.234161,59.267349 C230.234161,61.434925 230.234161,63.008190 230.234161,65.066620 C220.691223,65.066620 211.437119,65.066620 201.702591,65.066620 C201.803421,67.262093 201.880493,68.940430 201.957809,70.623779 C204.496658,70.833054 206.431854,70.992569 208.482834,71.161629 C208.736801,73.010040 208.955902,74.604691 209.190140,76.309631 C218.901459,76.309631 228.441513,76.309631 238.010040,76.309631 C238.299606,74.374733 238.536011,72.795090 238.780579,71.160835 C241.096466,70.923027 243.161163,70.711014 245.149323,70.506859 C245.149323,64.382835 245.149323,58.681793 245.149323,52.901405 C242.796768,52.707916 240.855606,52.548260 238.783722,52.377857 C238.459793,50.474903 238.170090,48.773006 237.819412,46.712883 C230.745926,46.712883 223.976227,46.712883 217.164215,46.712883 C217.164215,44.396393 217.164215,42.512218 217.164215,40.247036 C224.144608,40.247036 230.776627,40.247036 238.374908,40.246784
M184.710297,76.680862 C187.995453,76.680862 191.280609,76.680862 194.690689,76.680862 C194.690689,62.343365 194.690689,48.620319 194.690689,34.845497 C189.664032,34.845497 184.950623,34.845497 179.940170,34.845497 C179.940170,48.072067 180.004089,60.887085 179.893814,73.700607 C179.867294,76.784157 181.666901,76.764778 184.710297,76.680862
M194.040192,16.386494 C189.447083,16.386494 184.853973,16.386494 180.230927,16.386494 C180.230927,20.661940 180.230927,24.396650 180.230927,28.259155 C185.284683,28.259155 189.998611,28.259155 194.751968,28.259155 C194.751968,24.245541 194.751968,20.611769 194.040192,16.386494z"/>
</g>
</svg>
